<svg width="51" height="52" viewBox="0 0 51 52" fill="none" xmlns="http://www.w3.org/2000/svg">
<path d="M44.2983 4.85791H6.59362C5.97564 4.85791 5.38298 5.1034 4.94601 5.54037C4.50904 5.97734 4.26355 6.57001 4.26355 7.18798V44.8927C4.26355 45.1987 4.32382 45.5017 4.44092 45.7844C4.55801 46.0671 4.72964 46.3239 4.94601 46.5403C5.16238 46.7567 5.41924 46.9283 5.70194 47.0454C5.98464 47.1625 6.28763 47.2228 6.59362 47.2228H26.8864V30.8064H21.379V24.4517H26.8864V19.6856C26.7723 18.5667 26.9044 17.4363 27.2734 16.3738C27.6424 15.3113 28.2394 14.3424 29.0226 13.5351C29.8057 12.7278 30.7559 12.1015 31.8067 11.7003C32.8575 11.2991 33.9833 11.1327 35.1052 11.2126C36.7539 11.2025 38.4018 11.2874 40.0407 11.4668V17.1861H36.6727C34.0037 17.1861 33.4953 18.457 33.4953 20.2999V24.3881H39.85L39.0239 30.7428H33.4953V47.2228H44.2983C44.6043 47.2228 44.9073 47.1625 45.19 47.0454C45.4727 46.9283 45.7296 46.7567 45.946 46.5403C46.1623 46.3239 46.334 46.0671 46.451 45.7844C46.5681 45.5017 46.6284 45.1987 46.6284 44.8927V7.18798C46.6284 6.88199 46.5681 6.579 46.451 6.2963C46.334 6.0136 46.1623 5.75674 45.946 5.54037C45.7296 5.324 45.4727 5.15237 45.19 5.03528C44.9073 4.91818 44.6043 4.85791 44.2983 4.85791Z" fill="black"/>
</svg>
