<svg width="57" height="57" viewBox="0 0 57 57" fill="none" xmlns="http://www.w3.org/2000/svg">
<path d="M41.1826 12.968C40.6189 12.968 40.0679 13.1351 39.5992 13.4483C39.1306 13.7615 38.7653 14.2066 38.5496 14.7273C38.3339 15.2481 38.2774 15.8212 38.3874 16.374C38.4974 16.9268 38.7688 17.4347 39.1674 17.8332C39.566 18.2318 40.0738 18.5033 40.6266 18.6132C41.1795 18.7232 41.7525 18.6668 42.2733 18.451C42.794 18.2353 43.2392 17.87 43.5523 17.4014C43.8655 16.9327 44.0326 16.3817 44.0326 15.818C44.0326 15.0621 43.7324 14.3372 43.1979 13.8027C42.6634 13.2683 41.9385 12.968 41.1826 12.968V12.968ZM52.1076 18.7155C52.0614 16.7449 51.6924 14.7953 51.0151 12.9442C50.4112 11.3604 49.4713 9.92628 48.2601 8.74049C47.0841 7.52313 45.6466 6.58916 44.0564 6.00924C42.2102 5.31137 40.2584 4.93386 38.2851 4.89299C35.7676 4.75049 34.9601 4.75049 28.5001 4.75049C22.0401 4.75049 21.2326 4.75049 18.7151 4.89299C16.7419 4.93386 14.7901 5.31137 12.9439 6.00924C11.3566 6.59503 9.92034 7.52819 8.74012 8.74049C7.52276 9.91654 6.58879 11.354 6.00887 12.9442C5.311 14.7904 4.9335 16.7422 4.89262 18.7155C4.75012 21.233 4.75012 22.0405 4.75012 28.5005C4.75012 34.9605 4.75012 35.768 4.89262 38.2855C4.9335 40.2588 5.311 42.2106 6.00887 44.0567C6.58879 45.6469 7.52276 47.0844 8.74012 48.2605C9.92034 49.4728 11.3566 50.406 12.9439 50.9917C14.7901 51.6896 16.7419 52.0671 18.7151 52.108C21.2326 52.2505 22.0401 52.2505 28.5001 52.2505C34.9601 52.2505 35.7676 52.2505 38.2851 52.108C40.2584 52.0671 42.2102 51.6896 44.0564 50.9917C45.6466 50.4118 47.0841 49.4779 48.2601 48.2605C49.4767 47.0791 50.4174 45.6437 51.0151 44.0567C51.6924 42.2057 52.0614 40.256 52.1076 38.2855C52.1076 35.768 52.2501 34.9605 52.2501 28.5005C52.2501 22.0405 52.2501 21.233 52.1076 18.7155V18.7155ZM47.8326 38.0005C47.8153 39.5081 47.5423 41.0018 47.0251 42.418C46.6459 43.4516 46.0368 44.3855 45.2439 45.1492C44.4735 45.9342 43.5415 46.542 42.5126 46.9305C41.0964 47.4477 39.6027 47.7207 38.0951 47.738C35.7201 47.8567 34.8414 47.8805 28.5951 47.8805C22.3489 47.8805 21.4701 47.8805 19.0951 47.738C17.5297 47.7673 15.971 47.5263 14.4876 47.0255C13.5039 46.6172 12.6146 46.0109 11.8751 45.2442C11.0868 44.4813 10.4854 43.5466 10.1176 42.513C9.53778 41.0765 9.21618 39.5489 9.16762 38.0005C9.16762 35.6255 9.02512 34.7467 9.02512 28.5005C9.02512 22.2542 9.02512 21.3755 9.16762 19.0005C9.17827 17.4592 9.45963 15.9319 9.99887 14.488C10.417 13.4855 11.0588 12.5919 11.8751 11.8755C12.5967 11.0589 13.4884 10.4103 14.4876 9.97549C15.9353 9.45309 17.4611 9.18005 19.0001 9.16799C21.3751 9.16799 22.2539 9.02549 28.5001 9.02549C34.7464 9.02549 35.6251 9.02549 38.0001 9.16799C39.5077 9.18528 41.0014 9.45832 42.4176 9.97549C43.4969 10.376 44.4656 11.0272 45.2439 11.8755C46.0222 12.605 46.6303 13.497 47.0251 14.488C47.553 15.9342 47.8262 17.461 47.8326 19.0005C47.9514 21.3755 47.9751 22.2542 47.9751 28.5005C47.9751 34.7467 47.9514 35.6255 47.8326 38.0005ZM28.5001 16.3167C26.0914 16.3214 23.7382 17.04 21.7377 18.3816C19.7372 19.7232 18.1793 21.6277 17.2608 23.8544C16.3422 26.0811 16.1043 28.5301 16.5771 30.8919C17.0499 33.2538 18.2122 35.4225 19.9171 37.1241C21.6219 38.8256 23.7929 39.9837 26.1557 40.4518C28.5184 40.92 30.967 40.6774 33.1919 39.7545C35.4168 38.8317 37.3182 37.27 38.6559 35.2669C39.9937 33.2639 40.7076 30.9092 40.7076 28.5005C40.7108 26.8976 40.397 25.3099 39.7843 23.8288C39.1717 22.3476 38.2722 21.0022 37.1377 19.8699C36.0032 18.7376 34.656 17.8407 33.1736 17.2309C31.6913 16.6212 30.103 16.3105 28.5001 16.3167V16.3167ZM28.5001 36.4092C26.9359 36.4092 25.4068 35.9454 24.1063 35.0764C22.8057 34.2074 21.792 32.9722 21.1934 31.527C20.5948 30.0819 20.4382 28.4917 20.7433 26.9576C21.0485 25.4234 21.8017 24.0142 22.9078 22.9082C24.0139 21.8021 25.4231 21.0489 26.9572 20.7437C28.4914 20.4385 30.0815 20.5952 31.5267 21.1938C32.9718 21.7924 34.207 22.806 35.076 24.1066C35.945 25.4072 36.4089 26.9363 36.4089 28.5005C36.4089 29.5391 36.2043 30.5675 35.8069 31.527C35.4094 32.4866 34.8269 33.3584 34.0925 34.0928C33.3581 34.8272 32.4862 35.4098 31.5267 35.8072C30.5671 36.2047 29.5387 36.4092 28.5001 36.4092V36.4092Z" fill="black"/>
</svg>
