<svg width="53" height="53" viewBox="0 0 53 53" fill="none" xmlns="http://www.w3.org/2000/svg">
<path d="M50.5552 9.24266C50.5555 8.85717 50.4536 8.4785 50.2599 8.14521C50.0662 7.81192 49.7876 7.53592 49.4525 7.34532C49.1175 7.15472 48.7379 7.05632 48.3524 7.06015C47.9669 7.06398 47.5893 7.1699 47.2581 7.36712C45.9807 8.12745 44.6054 8.70972 43.1704 9.09779C41.1211 7.33926 38.5073 6.37696 35.8069 6.38679C32.8444 6.3902 29.9992 7.54478 27.872 9.60671C25.7449 11.6686 24.5023 14.4765 24.4067 17.4375C18.5665 16.5062 13.2733 13.4579 9.53657 8.87394C9.31142 8.60077 9.02389 8.38576 8.69821 8.24703C8.37254 8.10829 8.01828 8.04991 7.66531 8.0768C7.31254 8.10585 6.97216 8.22039 6.6736 8.41052C6.37503 8.60065 6.12728 8.86064 5.95175 9.16802C5.05156 10.739 4.53455 12.5001 4.44271 14.3083C4.35087 16.1166 4.68679 17.921 5.42319 19.5751L5.41893 19.5793C5.08796 19.7832 4.81482 20.0685 4.62563 20.4081C4.43644 20.7477 4.33753 21.1301 4.33837 21.5188C4.33436 21.8395 4.35359 22.16 4.39592 22.4779C4.61882 25.2239 5.83585 27.7944 7.81876 29.7072C7.68424 29.9634 7.60214 30.244 7.57725 30.5323C7.55237 30.8207 7.5852 31.1111 7.67382 31.3866C8.53832 34.0801 10.3768 36.354 12.8294 37.7634C10.3376 38.727 7.64704 39.0629 4.9948 38.7417C4.50391 38.6801 4.00666 38.7871 3.58462 39.0453C3.16257 39.3035 2.8408 39.6974 2.67207 40.1625C2.50334 40.6276 2.49768 41.1362 2.65602 41.6049C2.81436 42.0736 3.12729 42.4746 3.54348 42.7421C8.10497 45.68 13.4161 47.242 18.8418 47.2413C24.9947 47.3105 30.9979 45.3443 35.9177 41.6487C40.8375 37.953 44.398 32.735 46.0454 26.8064C46.816 24.2238 47.2094 21.5434 47.2135 18.8483C47.2135 18.7055 47.2135 18.5585 47.2113 18.4114C48.3507 17.1826 49.2335 15.7386 49.8077 14.1642C50.3819 12.5898 50.636 10.9166 50.5552 9.24266ZM43.3387 16.2524C42.9782 16.6788 42.7958 17.2275 42.8293 17.7848C42.8506 18.1449 42.8485 18.5072 42.8485 18.8483C42.844 21.1258 42.5102 23.3906 41.8575 25.5725C40.512 30.617 37.5126 35.064 33.3396 38.2014C29.1666 41.3388 24.0615 42.985 18.8418 42.8764C16.9669 42.877 15.0983 42.6567 13.2749 42.22C15.6001 41.4706 17.7742 40.3154 19.6965 38.8078C20.0505 38.529 20.3096 38.1475 20.4383 37.7157C20.5669 37.2838 20.5587 36.8227 20.4149 36.3957C20.271 35.9686 19.9986 35.5965 19.6349 35.3305C19.2712 35.0644 18.8341 34.9174 18.3835 34.9097C16.5696 34.8815 14.8374 34.1502 13.5519 32.87C13.878 32.8082 14.202 32.7315 14.5238 32.6399C14.9952 32.5057 15.4078 32.2167 15.695 31.8196C15.9823 31.4224 16.1275 30.9401 16.1073 30.4504C16.0871 29.9606 15.9027 29.4919 15.5838 29.1198C15.2648 28.7476 14.8299 28.4936 14.349 28.3986C13.2961 28.1907 12.3053 27.7427 11.4536 27.0896C10.602 26.4364 9.9124 25.5956 9.43854 24.6326C9.83297 24.6865 10.2299 24.7199 10.6278 24.7328C11.1005 24.7399 11.5632 24.5966 11.949 24.3234C12.3348 24.0502 12.6237 23.6614 12.774 23.2132C12.918 22.7609 12.9106 22.274 12.7529 21.8263C12.5952 21.3786 12.2958 20.9946 11.9002 20.7324C10.9402 20.0929 10.1539 19.2252 9.61157 18.2072C9.06927 17.1892 8.78793 16.0525 8.79276 14.8991C8.79276 14.7542 8.79701 14.6092 8.80554 14.4664C13.6969 19.0283 20.0414 21.7175 26.7211 22.0602C27.0583 22.0735 27.3941 22.01 27.7031 21.8745C28.0122 21.739 28.2864 21.535 28.505 21.278C28.7215 21.0185 28.8748 20.7123 28.9528 20.3836C29.0308 20.0548 29.0314 19.7124 28.9546 19.3833C28.8298 18.8625 28.7661 18.3289 28.7649 17.7934C28.7669 15.9264 29.5095 14.1364 30.8296 12.8163C32.1498 11.4961 33.9398 10.7536 35.8068 10.7516C36.7673 10.749 37.718 10.9456 38.5987 11.3289C39.4795 11.7123 40.2712 12.2741 40.9239 12.9788C41.1757 13.2496 41.4925 13.4515 41.8443 13.5653C42.196 13.6791 42.5711 13.701 42.9337 13.6289C43.8302 13.4544 44.7139 13.2195 45.5786 12.9256C44.9888 14.1324 44.235 15.252 43.3387 16.2524Z" fill="black"/>
</svg>
