<svg width="52" height="52" viewBox="0 0 52 52" fill="none" xmlns="http://www.w3.org/2000/svg">
<path d="M48.9899 21.1896C49.0946 18.1577 48.4316 15.1484 47.0623 12.4412C46.1332 11.3304 44.8439 10.5808 43.4189 10.323C37.525 9.7882 31.6066 9.569 25.6892 9.66635C19.7934 9.56459 13.8963 9.77671 8.02307 10.3018C6.8619 10.513 5.78731 11.0577 4.93044 11.8693C3.02402 13.6275 2.8122 16.6354 2.60037 19.1773C2.29304 23.7475 2.29304 28.3332 2.60037 32.9035C2.66165 34.3342 2.87467 35.7543 3.23584 37.14C3.49125 38.2098 4.00799 39.1996 4.7398 40.0208C5.60249 40.8754 6.7021 41.451 7.89598 41.673C12.4627 42.2367 17.0642 42.4703 21.6646 42.372C29.0784 42.4779 35.5814 42.372 43.2706 41.7789C44.4938 41.5706 45.6244 40.9942 46.5116 40.1267C47.1046 39.5334 47.5475 38.8072 47.8037 38.0084C48.5612 35.6839 48.9333 33.2511 48.9052 30.8064C48.9899 29.6202 48.9899 22.4605 48.9899 21.1896ZM20.902 32.0774V18.9654L33.442 25.5532C29.9257 27.502 25.2868 29.7049 20.902 32.0774Z" fill="black"/>
</svg>
